<svg xmlns="http://www.w3.org/2000/svg" viewBox="0 0 32 32" width="32" height="32" class="inv-bug"><path class="inv-bug-bg" fill="#FFFFFF" d="M0 2v28c0 1.1.9 2 2 2h28c1.1 0 2-.9 2-2V2c0-1.1-.9-2-2-2H2C.9 0 0 .9 0 2z"/><path class="inv-bug-text" fill="#000000" d="M7.1 19.7c-.1.5-.2 1-.2 1.4 0 1.6.9 2.7 2.7 2.7 1.5 0 2.7-.9 3.6-2.4l-.5 2.3h3l1.7-7.2c.4-1.8 1.3-2.8 2.5-2.8 1 0 1.6.6 1.6 1.7 0 .3 0 .6-.1 1l-.9 3.3c-.1.5-.2.9-.2 1.4 0 1.6.9 2.7 2.7 2.7 1.6 0 2.8-1.1 3.5-3.6l-1.2-.5c-.6 1.7-1.1 2-1.5 2-.4 0-.6-.3-.6-.8 0-.3.1-.5.1-.9l.9-3.2c.2-.8.3-1.4.3-2 0-2.4-1.4-3.7-3.1-3.7-1.6 0-3.2 1.5-4 3l.6-2.8h-4.6l-.6 2.5H15l-1.3 5.5c-1 2.4-2.9 2.4-3.2 2.4-.4-.1-.6-.2-.6-.8 0-.3.1-.7.2-1.3l2-8.3H7l-.6 2.5h2.1l-1.4 5.9M10 6c1.1 0 2 .9 2 2s-.9 2-2 2-2-.9-2-2 .9-2 2-2z"/></svg>